<svg width="32" height="32" viewBox="0 0 32 32" fill="none" xmlns="http://www.w3.org/2000/svg">
<path d="M21.3334 21.3333L16 16L10.6667 21.3333" stroke="black" stroke-width="2" stroke-linecap="round" stroke-linejoin="round"/>
<path d="M16 16V28" stroke="black" stroke-width="2" stroke-linecap="round" stroke-linejoin="round"/>
<path d="M27.1867 24.52C28.4871 23.811 29.5145 22.6892 30.1065 21.3315C30.6986 19.9738 30.8216 18.4577 30.4563 17.0223C30.0909 15.5869 29.258 14.314 28.0889 13.4046C26.9198 12.4952 25.4812 12.001 24 12H22.32C21.9164 10.439 21.1642 8.9898 20.1199 7.76134C19.0757 6.53289 17.7665 5.55715 16.2908 4.9075C14.8151 4.25784 13.2114 3.95116 11.6002 4.01053C9.98892 4.06989 8.4121 4.49375 6.98824 5.25024C5.56439 6.00673 4.33056 7.07616 3.3795 8.37813C2.42845 9.6801 1.78493 11.1807 1.49731 12.7672C1.2097 14.3537 1.28548 15.9847 1.71896 17.5377C2.15244 19.0907 2.93233 20.5252 4.00001 21.7334" stroke="black" stroke-width="2" stroke-linecap="round" stroke-linejoin="round"/>
<path d="M21.3334 21.3333L16 16L10.6667 21.3333" stroke="black" stroke-width="2" stroke-linecap="round" stroke-linejoin="round"/>
</svg>
