<svg width="29" height="28" viewBox="0 0 29 28" fill="none" xmlns="http://www.w3.org/2000/svg">
<g clip-path="url(#clip0_121_229)">
<path d="M26.7967 7.49008C26.6581 6.93639 26.3758 6.42908 25.9784 6.01939C25.581 5.6097 25.0826 5.31213 24.5333 5.15675C22.5267 4.66675 14.5 4.66675 14.5 4.66675C14.5 4.66675 6.47335 4.66675 4.46668 5.20341C3.91747 5.3588 3.41899 5.65636 3.02159 6.06606C2.62418 6.47575 2.34194 6.98306 2.20335 7.53675C1.8361 9.57323 1.65646 11.6391 1.66668 13.7084C1.65359 15.7933 1.83324 17.8749 2.20335 19.9267C2.35614 20.4632 2.64471 20.9513 3.04118 21.3436C3.43766 21.736 3.92864 22.0195 4.46668 22.1667C6.47335 22.7034 14.5 22.7034 14.5 22.7034C14.5 22.7034 22.5267 22.7034 24.5333 22.1667C25.0826 22.0114 25.581 21.7138 25.9784 21.3041C26.3758 20.8944 26.6581 20.3871 26.7967 19.8334C27.1611 17.8123 27.3407 15.7621 27.3333 13.7084C27.3464 11.6235 27.1668 9.5419 26.7967 7.49008Z" stroke="#A4A8AE" stroke-width="2" stroke-linecap="round" stroke-linejoin="round"/>
<path d="M11.875 17.5233L18.5833 13.7083L11.875 9.89331V17.5233Z" stroke="#A4A8AE" stroke-width="2" stroke-linecap="round" stroke-linejoin="round"/>
</g>
<defs>
<clipPath id="clip0_121_229">
<rect width="28" height="28" fill="white" transform="translate(0.5)"/>
</clipPath>
</defs>
</svg>
