<svg width="187" height="512" viewBox="0 0 187 512" fill="none" xmlns="http://www.w3.org/2000/svg">
<path d="M416 144H96C69.4903 144 48 165.49 48 192V384C48 410.51 69.4903 432 96 432H416C442.51 432 464 410.51 464 384V192C464 165.49 442.51 144 416 144Z" stroke="black" stroke-width="32" stroke-linejoin="round"/>
<path d="M411.36 144V114C411.358 106.642 409.731 99.3754 406.597 92.7183C403.463 86.0613 398.898 80.178 393.229 75.4883C387.559 70.7985 380.924 67.4179 373.797 65.5877C366.671 63.7574 359.228 63.5226 352 64.9L88.64 109.85C77.2032 112.03 66.8855 118.132 59.4665 127.104C52.0474 136.077 47.9921 147.357 48 159V208" stroke="black" stroke-width="32" stroke-linejoin="round"/>
</svg>
